<mxfile host="app.diagrams.net" modified="2023-06-09T11:04:18.409Z" agent="Mozilla/5.0 (X11; Linux x86_64) AppleWebKit/537.36 (KHTML, like Gecko) Chrome/113.0.0.0 Safari/537.36" etag="HE1s5fV_U8NT9-YjmuA2" version="21.2.3" type="device">
  <diagram name="Page-1" id="jFkasZeqkRER9PYBSdR1">
    <mxGraphModel dx="611" dy="821" grid="1" gridSize="10" guides="1" tooltips="1" connect="1" arrows="1" fold="1" page="1" pageScale="1" pageWidth="850" pageHeight="1100" math="0" shadow="0">
      <root>
        <mxCell id="0" />
        <mxCell id="1" parent="0" />
        <mxCell id="2elELHcaA_EUHwfkwRG_-1" value="Client" style="rounded=1;whiteSpace=wrap;html=1;fillColor=#f5f5f5;fontColor=#333333;strokeColor=#666666;sketch=1;curveFitting=1;jiggle=2;fontSize=16;fontStyle=1" vertex="1" parent="1">
          <mxGeometry x="30" y="98.33333333333337" width="139.41176470588238" height="175" as="geometry" />
        </mxCell>
        <mxCell id="2elELHcaA_EUHwfkwRG_-2" value="Server" style="rounded=1;whiteSpace=wrap;html=1;fillColor=#f5f5f5;fontColor=#333333;strokeColor=#666666;sketch=1;curveFitting=1;jiggle=2;fontSize=16;fontStyle=1" vertex="1" parent="1">
          <mxGeometry x="680.5882352941177" y="98.33333333333337" width="139.41176470588238" height="175" as="geometry" />
        </mxCell>
        <mxCell id="2elELHcaA_EUHwfkwRG_-5" value="MakeRequest" style="edgeStyle=orthogonalEdgeStyle;rounded=0;orthogonalLoop=1;jettySize=auto;html=1;exitX=1;exitY=0.75;exitDx=0;exitDy=0;entryX=0;entryY=0.75;entryDx=0;entryDy=0;sketch=1;curveFitting=1;jiggle=2;fontSize=16;" edge="1" parent="1" source="2elELHcaA_EUHwfkwRG_-3" target="2elELHcaA_EUHwfkwRG_-2">
          <mxGeometry relative="1" as="geometry">
            <mxPoint x="684.0735294117648" y="285.00000000000006" as="targetPoint" />
          </mxGeometry>
        </mxCell>
        <mxCell id="2elELHcaA_EUHwfkwRG_-6" value="Return Response" style="edgeStyle=orthogonalEdgeStyle;rounded=0;orthogonalLoop=1;jettySize=auto;html=1;exitX=0;exitY=0.25;exitDx=0;exitDy=0;entryX=1;entryY=0.25;entryDx=0;entryDy=0;sketch=1;curveFitting=1;jiggle=2;fontSize=16;" edge="1" parent="1" source="2elELHcaA_EUHwfkwRG_-3" target="2elELHcaA_EUHwfkwRG_-1">
          <mxGeometry relative="1" as="geometry" />
        </mxCell>
        <mxCell id="2elELHcaA_EUHwfkwRG_-3" value="Circuitbreaker" style="rounded=1;whiteSpace=wrap;html=1;fillColor=#e1d5e7;strokeColor=#9673a6;sketch=1;curveFitting=1;jiggle=2;fontSize=16;fontStyle=1" vertex="1" parent="1">
          <mxGeometry x="343.6764705882353" y="98.33333333333337" width="139.41176470588238" height="175" as="geometry" />
        </mxCell>
        <mxCell id="2elELHcaA_EUHwfkwRG_-4" value="Make Request" style="edgeStyle=orthogonalEdgeStyle;rounded=0;orthogonalLoop=1;jettySize=auto;html=1;exitX=1;exitY=0.75;exitDx=0;exitDy=0;entryX=0;entryY=0.75;entryDx=0;entryDy=0;sketch=1;curveFitting=1;jiggle=2;fontSize=16;" edge="1" parent="1" source="2elELHcaA_EUHwfkwRG_-1" target="2elELHcaA_EUHwfkwRG_-3">
          <mxGeometry relative="1" as="geometry" />
        </mxCell>
        <mxCell id="2elELHcaA_EUHwfkwRG_-7" value="Return Response" style="edgeStyle=orthogonalEdgeStyle;rounded=0;orthogonalLoop=1;jettySize=auto;html=1;exitX=0;exitY=0.25;exitDx=0;exitDy=0;entryX=1;entryY=0.25;entryDx=0;entryDy=0;sketch=1;curveFitting=1;jiggle=2;fontSize=16;" edge="1" parent="1" source="2elELHcaA_EUHwfkwRG_-2" target="2elELHcaA_EUHwfkwRG_-3">
          <mxGeometry relative="1" as="geometry" />
        </mxCell>
        <mxCell id="2elELHcaA_EUHwfkwRG_-26" value="" style="verticalLabelPosition=bottom;html=1;verticalAlign=top;strokeWidth=2;shape=mxgraph.lean_mapping.physical_pull;pointerEvents=1;rotation=-180;flipV=1;opacity=20;strokeColor=#00FF00;sketch=1;curveFitting=1;jiggle=2;fontSize=16;" vertex="1" parent="1">
          <mxGeometry x="198.4558823529412" y="40.000000000000036" width="389.1911764705883" height="303.33333333333337" as="geometry" />
        </mxCell>
        <mxCell id="2elELHcaA_EUHwfkwRG_-9" value="Open" style="ellipse;whiteSpace=wrap;html=1;fillColor=#f8cecc;strokeColor=#b85450;sketch=1;curveFitting=1;jiggle=2;fontSize=16;fontStyle=1" vertex="1" parent="1">
          <mxGeometry x="599.491111111111" y="473.3333333333333" width="148.88888888888886" height="146.66666666666663" as="geometry" />
        </mxCell>
        <mxCell id="2elELHcaA_EUHwfkwRG_-17" value="After reaching the error&lt;br style=&quot;border-color: var(--border-color); font-size: 16px;&quot;&gt;threshold regarding the&lt;br style=&quot;border-color: var(--border-color); font-size: 16px;&quot;&gt;policy" style="edgeStyle=orthogonalEdgeStyle;rounded=0;orthogonalLoop=1;jettySize=auto;html=1;exitX=1;exitY=0.5;exitDx=0;exitDy=0;entryX=0;entryY=0.5;entryDx=0;entryDy=0;sketch=1;curveFitting=1;jiggle=2;fontSize=16;" edge="1" parent="1" source="2elELHcaA_EUHwfkwRG_-10" target="2elELHcaA_EUHwfkwRG_-9">
          <mxGeometry relative="1" as="geometry" />
        </mxCell>
        <mxCell id="2elELHcaA_EUHwfkwRG_-10" value="Closed" style="ellipse;whiteSpace=wrap;html=1;fillColor=#d5e8d4;strokeColor=#82b366;sketch=1;curveFitting=1;jiggle=2;fontSize=16;fontStyle=1" vertex="1" parent="1">
          <mxGeometry x="152.8244444444444" y="473.3333333333333" width="148.88888888888886" height="146.66666666666663" as="geometry" />
        </mxCell>
        <mxCell id="2elELHcaA_EUHwfkwRG_-16" value="After a single failed&lt;br style=&quot;font-size: 16px;&quot;&gt;request" style="edgeStyle=orthogonalEdgeStyle;orthogonalLoop=1;jettySize=auto;html=1;exitX=0.5;exitY=0;exitDx=0;exitDy=0;entryX=0;entryY=1;entryDx=0;entryDy=0;curved=1;sketch=1;curveFitting=1;jiggle=2;fontSize=16;" edge="1" parent="1" source="2elELHcaA_EUHwfkwRG_-11" target="2elELHcaA_EUHwfkwRG_-9">
          <mxGeometry relative="1" as="geometry" />
        </mxCell>
        <mxCell id="2elELHcaA_EUHwfkwRG_-18" value="After a single successful&lt;br style=&quot;font-size: 16px;&quot;&gt;request" style="edgeStyle=orthogonalEdgeStyle;orthogonalLoop=1;jettySize=auto;html=1;exitX=0;exitY=0.5;exitDx=0;exitDy=0;entryX=0.5;entryY=1;entryDx=0;entryDy=0;curved=1;sketch=1;curveFitting=1;jiggle=2;fontSize=16;" edge="1" parent="1" source="2elELHcaA_EUHwfkwRG_-11" target="2elELHcaA_EUHwfkwRG_-10">
          <mxGeometry x="0.1123" y="-33" relative="1" as="geometry">
            <mxPoint as="offset" />
          </mxGeometry>
        </mxCell>
        <mxCell id="2elELHcaA_EUHwfkwRG_-11" value="Half Open" style="ellipse;whiteSpace=wrap;html=1;fillColor=#fff2cc;strokeColor=#d6b656;sketch=1;curveFitting=1;jiggle=2;fontSize=16;fontStyle=1" vertex="1" parent="1">
          <mxGeometry x="376.15777777777765" y="803.3333333333333" width="148.88888888888886" height="146.66666666666663" as="geometry" />
        </mxCell>
        <mxCell id="2elELHcaA_EUHwfkwRG_-14" value="After waiting for the&lt;br style=&quot;font-size: 16px;&quot;&gt;open interval" style="edgeStyle=orthogonalEdgeStyle;orthogonalLoop=1;jettySize=auto;html=1;exitX=0.5;exitY=1;exitDx=0;exitDy=0;entryX=1;entryY=0.5;entryDx=0;entryDy=0;curved=1;sketch=1;curveFitting=1;jiggle=2;fontSize=16;" edge="1" parent="1" source="2elELHcaA_EUHwfkwRG_-9" target="2elELHcaA_EUHwfkwRG_-11">
          <mxGeometry x="-0.1124" y="-24" relative="1" as="geometry">
            <mxPoint as="offset" />
          </mxGeometry>
        </mxCell>
        <mxCell id="2elELHcaA_EUHwfkwRG_-22" value="Successful request" style="edgeStyle=orthogonalEdgeStyle;orthogonalLoop=1;jettySize=auto;html=1;exitX=0;exitY=0.5;exitDx=0;exitDy=0;entryX=0.5;entryY=0;entryDx=0;entryDy=0;curved=1;sketch=1;curveFitting=1;jiggle=2;fontSize=16;" edge="1" parent="1" source="2elELHcaA_EUHwfkwRG_-10" target="2elELHcaA_EUHwfkwRG_-10">
          <mxGeometry x="-0.1379" y="-22" relative="1" as="geometry">
            <Array as="points">
              <mxPoint x="78.38" y="546.6666666666666" />
              <mxPoint x="78.38" y="400" />
              <mxPoint x="227.26888888888882" y="400" />
            </Array>
            <mxPoint as="offset" />
          </mxGeometry>
        </mxCell>
      </root>
    </mxGraphModel>
  </diagram>
</mxfile>
